<svg width="160" height="44" viewBox="0 0 160 44" fill="none" xmlns="http://www.w3.org/2000/svg">
<path d="M60.3903 25.4282C59.0044 25.4463 57.631 25.1657 56.3642 24.6056C55.1662 24.0672 54.0982 23.2791 53.2323 22.2945C52.3377 21.272 51.6517 20.0859 51.2126 18.8023C50.7286 17.3842 50.4896 15.8946 50.5059 14.3969V14.0686C50.4906 12.576 50.7296 11.0915 51.2126 9.67837C51.6499 8.38813 52.3331 7.19405 53.2247 6.16164C54.0853 5.1726 55.1513 4.38147 56.349 3.84294C57.6158 3.28288 58.9893 3.00227 60.3752 3.02035C61.7709 3.00236 63.1542 3.28288 64.4316 3.84294C65.6379 4.38087 66.7133 5.17179 67.5843 6.16164C68.4834 7.18948 69.1749 8.38032 69.6211 9.66894C70.1088 11.0817 70.3504 12.5672 70.3354 14.0611V14.3894C70.352 15.8901 70.1104 17.3827 69.6211 18.8023C69.1761 20.0892 68.4844 21.2777 67.5843 22.302C66.7136 23.2879 65.6404 24.0761 64.4373 24.6132C63.1628 25.1712 61.7825 25.4492 60.3903 25.4282ZM60.3903 22.0322C61.632 22.0322 62.6633 21.7127 63.4843 21.0738C64.3472 20.3766 64.991 19.4474 65.3392 18.3966C65.7775 17.106 65.9884 15.7497 65.9625 14.3875V14.029C65.9879 12.6786 65.7743 11.3343 65.3316 10.0576C64.9765 9.00845 64.3277 8.08221 63.4616 7.38797C62.6355 6.75028 61.6067 6.43143 60.3752 6.43143C59.1436 6.43143 58.1268 6.74587 57.3248 7.37476C56.4732 8.06681 55.8398 8.98836 55.5002 10.0293C55.0711 11.3166 54.8654 12.6673 54.892 14.0233V14.3818C54.8664 15.7428 55.072 17.0983 55.5002 18.391C55.8389 19.4406 56.4752 20.3703 57.3324 21.0681C58.1496 21.7109 59.1689 22.0329 60.3903 22.0341V22.0322Z" fill="#19A96C"/>
<path d="M71.9744 25.1151V22.4964L74.0926 22.0493V11.9972H71.675V8.93133H74.0926V7.13523C74.0926 5.32027 74.6162 3.92162 75.6633 2.9393C76.7104 1.95698 78.175 1.46582 80.057 1.46582C80.5549 1.4679 81.0519 1.50573 81.5443 1.57902C81.9943 1.64025 82.4404 1.72782 82.8801 1.84127L82.5011 5.08632C82.2308 5.01044 81.9544 4.95804 81.675 4.92973C81.3606 4.89393 81.0442 4.87629 80.7277 4.8769C79.9698 4.8769 79.4015 5.07123 79.0225 5.45988C78.6436 5.84853 78.4636 6.40698 78.4825 7.13523V8.93133H82.1639V11.9972H78.4825V22.0493L81.353 22.4964V25.1151H71.9744Z" fill="#19A96C"/>
<path d="M85.6993 25.1151V22.4964L87.8175 22.0493V11.9972H85.3999V8.93133H87.8175V7.13523C87.8175 5.32027 88.341 3.92162 89.3882 2.9393C90.4353 1.95698 91.8998 1.46582 93.7819 1.46582C94.2797 1.4679 94.7768 1.50573 95.2692 1.57902C95.716 1.64062 96.1588 1.72818 96.5954 1.84127L96.2165 5.08632C95.9462 5.01044 95.6698 4.95804 95.3904 4.92973C95.0759 4.894 94.7596 4.87636 94.4431 4.8769C93.6852 4.8769 93.12 5.07123 92.7474 5.45988C92.3748 5.84853 92.1891 6.40698 92.1903 7.13523V8.93133H95.8717V11.9972H92.2036V22.0493L95.0721 22.4964V25.1151H85.6993Z" fill="#19A96C"/>
<path d="M108.708 25.4282C107.81 25.4559 106.92 25.2532 106.124 24.8395C105.393 24.4272 104.778 23.838 104.337 23.1264L104.02 25.1169H100.231V4.86168L97.9026 4.41265V1.78076H104.602V10.6481C105.052 10.0191 105.648 9.50672 106.338 9.15383C107.083 8.79092 107.905 8.61108 108.734 8.62934C110.045 8.62934 111.159 8.98088 112.077 9.68398C112.994 10.3871 113.688 11.3769 114.161 12.6536C114.642 13.929 114.882 15.4295 114.882 17.1552V17.4815C114.882 19.0877 114.642 20.4857 114.161 21.6756C113.745 22.7838 113.015 23.7479 112.059 24.4509C111.147 25.1036 110.03 25.4294 108.708 25.4282ZM107.37 22.0322C108.492 22.0322 109.298 21.6353 109.788 20.8417C110.278 20.048 110.524 18.928 110.525 17.4815V17.1665C110.542 16.2461 110.433 15.3276 110.201 14.4365C110.039 13.7638 109.69 13.15 109.195 12.6649C108.706 12.2335 108.068 12.0082 107.416 12.0366C106.814 12.0187 106.22 12.1796 105.71 12.4989C105.235 12.813 104.852 13.2464 104.598 13.7554V20.5002C104.874 20.9722 105.271 21.3628 105.748 21.6322C106.244 21.9052 106.804 22.0437 107.37 22.0341V22.0322Z" fill="#19A96C"/>
<path d="M124.439 25.4282C123.014 25.461 121.606 25.1068 120.368 24.4038C119.221 23.7355 118.286 22.7585 117.672 21.5851C117.021 20.3174 116.695 18.9089 116.724 17.4854V16.8873C116.695 15.4146 117.003 13.9547 117.624 12.6178C118.182 11.4249 119.061 10.4098 120.165 9.68596C121.261 8.9728 122.556 8.62125 124.049 8.63131C125.519 8.63131 126.756 8.9206 127.759 9.49918C128.757 10.0792 129.55 10.9515 130.032 11.9971C130.554 13.0838 130.814 14.4001 130.813 15.9459V18.3231H121.27L121.239 18.4136C121.286 19.072 121.467 19.7139 121.772 20.3003C122.058 20.8433 122.493 21.2946 123.026 21.6021C123.628 21.9304 124.308 22.0926 124.994 22.0719C125.754 22.0777 126.51 21.9748 127.24 21.7662C127.955 21.5538 128.64 21.2494 129.276 20.8606L130.462 23.5529C129.702 24.1399 128.845 24.5929 127.931 24.8924C126.806 25.2645 125.625 25.4456 124.439 25.4282ZM121.3 15.4289H126.722V15.0478C126.735 14.4709 126.646 13.8962 126.459 13.3499C126.304 12.9036 126.009 12.5187 125.618 12.2518C125.17 11.9747 124.649 11.8386 124.123 11.8613C123.595 11.8451 123.076 12.0059 122.651 12.3178C122.23 12.644 121.903 13.0748 121.703 13.5668C121.466 14.141 121.312 14.7457 121.245 15.3629L121.3 15.4289Z" fill="#19A96C"/>
<path d="M139.076 25.4283C137.461 25.4283 136.179 24.9969 135.229 24.134C134.28 23.2712 133.805 22.0971 133.807 20.6116C133.788 19.6531 134.08 18.7142 134.64 17.9345C135.195 17.1672 136.016 16.5641 137.103 16.1252C138.191 15.6862 139.53 15.4667 141.122 15.4667H143.268V14.2744C143.297 13.5809 143.053 12.9037 142.586 12.3877C142.129 11.9047 141.445 11.6626 140.534 11.6613C140.107 11.6556 139.682 11.7141 139.273 11.8349C138.91 11.9451 138.566 12.1085 138.251 12.3198L137.907 14.4592H134.754L134.693 10.2558C135.569 9.76755 136.496 9.37656 137.458 9.08981C138.536 8.77805 139.654 8.62674 140.777 8.64079C142.902 8.64079 144.579 9.13195 145.809 10.1143C147.039 11.0966 147.655 12.5003 147.656 14.3253V20.9965C147.656 21.2154 147.656 21.4323 147.656 21.6455C147.661 21.854 147.679 22.0619 147.71 22.2681L149.415 22.5059V25.1245H143.977C143.867 24.8453 143.757 24.546 143.647 24.2265C143.538 23.9157 143.457 23.5955 143.407 23.2699C142.904 23.9116 142.279 24.4477 141.567 24.8472C140.801 25.2526 139.943 25.4528 139.076 25.4283ZM140.248 22.1983C140.853 22.1994 141.45 22.0585 141.99 21.787C142.504 21.5447 142.945 21.1703 143.267 20.7022V18.1439H141.103C140.14 18.1439 139.412 18.3634 138.916 18.8023C138.683 18.9957 138.495 19.2381 138.367 19.512C138.239 19.786 138.173 20.0848 138.174 20.3871C138.158 20.637 138.2 20.8871 138.294 21.1189C138.389 21.3508 138.535 21.5585 138.721 21.7267C139.088 22.0411 139.597 22.1983 140.248 22.1983Z" fill="#19A96C"/>
<path d="M156.976 25.4282C155.461 25.4282 154.297 25.0144 153.484 24.1868C152.672 23.3591 152.264 22.0479 152.261 20.2531V11.997H150.023V8.93122H152.261V4.96924H156.631V8.93122H159.621V11.997H156.631V20.238C156.631 20.8669 156.764 21.3159 157.029 21.5851C157.174 21.7229 157.345 21.8299 157.532 21.8993C157.719 21.9688 157.919 21.9992 158.119 21.9888C158.382 21.9882 158.646 21.9706 158.907 21.936C159.182 21.902 159.42 21.8643 159.621 21.8247L160 24.9792C159.519 25.116 159.03 25.2237 158.536 25.3018C158.02 25.3856 157.499 25.4279 156.976 25.4282Z" fill="#19A96C"/>
<path d="M54.9224 41.3742C54.3475 41.3732 53.776 41.2867 53.2267 41.1176C52.6444 40.9367 52.0935 40.6675 51.5935 40.3195V38.4121H52.2718L52.3741 39.9479C52.7603 40.1897 53.1787 40.3764 53.617 40.5025C54.0413 40.625 54.4806 40.6885 54.9224 40.6912C55.3874 40.7009 55.8498 40.6188 56.2828 40.4497C56.6401 40.3133 56.9527 40.0816 57.1865 39.7799C57.4026 39.4951 57.5167 39.1464 57.5105 38.7894C57.5151 38.4567 57.4244 38.1295 57.2491 37.8461C57.0321 37.5378 56.7392 37.2903 56.3984 37.1273C55.8914 36.8785 55.3574 36.6886 54.8068 36.5613C54.1945 36.4175 53.6021 36.1996 53.0429 35.9123C52.6347 35.7069 52.2883 35.3978 52.0388 35.0161C51.8151 34.639 51.7028 34.2068 51.7148 33.769C51.7068 33.3048 51.8446 32.8497 52.1089 32.4672C52.3888 32.0767 52.7708 31.7701 53.2134 31.5805C53.7352 31.3565 54.2994 31.2471 54.8675 31.2598C55.4749 31.2496 56.0791 31.35 56.6503 31.556C57.1336 31.733 57.5823 31.9922 57.9766 32.322V34.0803H57.304L57.2017 32.6861C56.8996 32.4469 56.557 32.2635 56.1899 32.1446C55.761 32.0109 55.3131 31.9472 54.8637 31.956C54.4342 31.9452 54.0075 32.0276 53.6132 32.1975C53.2911 32.336 53.0128 32.559 52.808 32.8427C52.6206 33.1131 52.5226 33.4349 52.5276 33.7634C52.5208 34.0676 52.5982 34.3678 52.7511 34.6312C52.9435 34.9191 53.2115 35.1489 53.5261 35.2954C54.0186 35.5325 54.5349 35.7171 55.0664 35.8463C56.1413 36.1217 56.9522 36.4927 57.4992 36.9594C57.7669 37.1833 57.9801 37.465 58.1225 37.783C58.265 38.101 58.333 38.4471 58.3214 38.7951C58.3314 39.2864 58.1797 39.7674 57.8895 40.1648C57.5803 40.571 57.1656 40.8854 56.6901 41.0742C56.1271 41.2915 55.5259 41.3935 54.9224 41.3742Z" fill="#19A96C"/>
<path d="M62.4556 41.2328V40.6442L63.5639 40.5555V32.0655L62.4556 31.9769V31.3826H65.487V31.9769L64.3805 32.0655V40.5555L65.487 40.6442V41.2328H62.4556Z" fill="#19A96C"/>
<path d="M69.4753 41.2328V40.6442L70.5818 40.5555V32.0655L69.4753 31.9769V31.3826H72.5068V31.9769L71.3984 32.0655V40.5555L72.5068 40.6442V41.2328H69.4753ZM71.2828 38.4934L70.8831 37.884L76.1256 32.0542V32.0203L75.1783 31.9788V31.3845H77.9615V31.9788L77.1127 32.0542L71.2828 38.4934ZM75.4511 41.2328V40.6442L76.4231 40.597V40.5763L73.1775 36.1256L73.708 35.5313L77.4367 40.5631L78.2931 40.6442V41.2328H75.4511Z" fill="#19A96C"/>
<path d="M82.2188 41.2328V40.6442L83.3271 40.5555V32.0655L82.2188 31.9769V31.3826H85.2502V31.9769L84.1437 32.0655V40.5555L85.2502 40.6442V41.2328H82.2188ZM84.0263 38.4934L83.6246 37.884L88.869 32.0542V32.0203L87.9103 31.9788V31.3845H90.6955V31.9788L89.8466 32.0542L84.0263 38.4934ZM88.1945 41.2328V40.6442L89.1646 40.597V40.5763L85.9171 36.1256L86.4476 35.5313L90.1763 40.5631L91.0327 40.6442V41.2328H88.1945Z" fill="#19A96C"/>
<path d="M94.9661 41.2328V40.6442L96.0726 40.5555V32.0655L94.9661 31.9769V31.3826H97.9975V31.9769L96.8891 32.0655V40.5555L97.9975 40.6442V41.2328H94.9661Z" fill="#19A96C"/>
<path d="M102.023 41.2328V40.6442L103.13 40.5555V32.0655L102.023 31.9769V31.3826H104.231L107.884 39.8235H107.925L111.525 31.3826H113.787V31.9769L112.679 32.0655V40.5555L113.787 40.6442V41.2328H110.756V40.6442L111.893 40.5555V32.5749H111.859L108.196 41.0649H107.628L103.92 32.5749L103.878 32.5881L103.907 36.2483V40.5555L105.053 40.6442V41.2328H102.023Z" fill="#19A96C"/>
<path d="M12.376 5.13153L2.79663 11.4443C4.74156 7.95361 7.5946 5.04889 11.0561 3.03523C14.5176 1.02157 18.4597 -0.0266979 22.4685 0.000516713C26.4773 0.0277314 30.4048 1.12943 33.8384 3.18989C37.2719 5.25036 40.085 8.19355 41.9819 11.7103L34.6401 6.22202C34.2586 5.93372 33.7928 5.77766 33.3139 5.77766C32.8349 5.77766 32.3691 5.93372 31.9876 6.22202L24.7311 11.6537L14.8429 5.13153C14.4763 4.89241 14.0476 4.76505 13.6094 4.76505C13.1712 4.76505 12.7426 4.89241 12.376 5.13153Z" fill="#19A96C"/>
<path d="M25.8736 39.1951L23.1964 40.229C23.1434 39.4064 23.091 38.5825 23.0392 37.7574C22.971 36.6745 22.9009 35.5909 22.8289 34.5067C22.832 34.487 22.8364 34.4674 22.8421 34.4482C22.8802 34.4612 22.9175 34.4763 22.9539 34.4935C23.5223 34.7784 24.0907 35.0595 24.6591 35.3463C24.7032 35.3664 24.7422 35.3962 24.773 35.4334C24.8039 35.4707 24.8258 35.5144 24.8372 35.5614C25.177 36.7726 25.5224 37.9838 25.8736 39.1951Z" fill="#19A96C"/>
<path d="M28.5129 30.7279L29.4735 37.8048L27.2795 38.6538C26.8399 37.1293 26.4016 35.6049 25.9646 34.0805C25.9494 34.0188 25.9208 33.9612 25.8809 33.9117C25.8409 33.8621 25.7906 33.8219 25.7334 33.7937C25.1934 33.5051 24.661 33.2032 24.123 32.9108C24.0772 32.8905 24.0397 32.8552 24.0169 32.8108H24.0017C24.0017 32.6598 24.015 32.5089 24.0244 32.3561C24.0434 31.9995 24.0661 31.6429 24.0889 31.2543L24.1571 30.4543C24.3882 30.5619 24.6648 30.6807 24.6648 30.6807C25.8948 31.1833 27.2709 31.2002 28.5129 30.7279Z" fill="#19A96C"/>
<path d="M44.6306 22.0096C44.6306 21.7361 44.6211 21.4625 44.6078 21.1908C44.4777 18.3149 43.7852 15.4919 42.5692 12.8801L34.2895 6.68428C34.0097 6.46857 33.6658 6.35153 33.3119 6.35153C32.958 6.35153 32.6141 6.46857 32.3342 6.68428L25.2425 11.9952L35.7276 18.9117V17.6571H36.5138V17.9571H37.9367V30.0675H36.5157V32.4466L37.1637 32.2089L38.0409 31.8863L40.0209 31.1599V19.3079H40.6404V19.5438H41.7564V29.1072H40.6404V30.9316L43.2418 29.9751C43.3062 29.8053 43.3668 29.6355 43.4312 29.4638C43.7731 28.4782 44.0435 27.4694 44.2402 26.4452C44.2857 26.2169 44.3255 25.9886 44.3615 25.7584C44.4373 25.2905 44.4979 24.8151 44.5415 24.3453C44.5661 24.0982 44.5851 23.8491 44.6002 23.6001C44.628 23.1473 44.6419 22.6913 44.6419 22.2322C44.6325 22.1568 44.6324 22.0851 44.6306 22.0096ZM11.3736 41.5969C11.8132 41.8485 12.2622 42.0812 12.7207 42.295V40.3744L11.3736 41.5969ZM6.38312 37.784C6.60101 38.0085 6.82458 38.2255 7.05383 38.4386V37.1746L6.38312 37.784ZM24.748 12.3669L24.2308 12.0254L14.5169 5.61077C14.2463 5.4354 13.9303 5.34204 13.6074 5.34204C13.2846 5.34204 12.9686 5.4354 12.698 5.61077L2.23951 12.5103C0.0172462 17.0793 -0.572927 22.2666 0.566529 27.2149C0.581686 27.2828 0.598737 27.3526 0.615789 27.4224C1.53374 31.2263 3.44643 34.7205 6.15955 37.55L7.05383 36.7388V35.886L5.90378 36.9293C5.88825 36.9434 5.87009 36.9542 5.85034 36.9613C5.83059 36.9683 5.80963 36.9714 5.78868 36.9704C5.76772 36.9693 5.74719 36.9641 5.72825 36.9552C5.7093 36.9462 5.69233 36.9335 5.67831 36.918C5.65102 36.8888 5.63609 36.8503 5.63663 36.8105C5.63643 36.7885 5.64089 36.7667 5.6497 36.7466C5.65851 36.7264 5.67149 36.7083 5.68778 36.6935L7.05383 35.454V34.5785L5.90378 35.6219C5.88825 35.6359 5.87009 35.6468 5.85034 35.6538C5.83059 35.6609 5.80963 35.664 5.78868 35.6629C5.76772 35.6618 5.74719 35.6567 5.72825 35.6477C5.7093 35.6387 5.69233 35.6261 5.67831 35.6105C5.65131 35.582 5.63638 35.5441 5.63663 35.5049C5.63652 35.4826 5.641 35.4606 5.6498 35.4402C5.6586 35.4197 5.67153 35.4013 5.68778 35.386L7.15993 34.0503C7.18238 34.0307 7.20974 34.0175 7.2391 34.0122C7.26847 34.0069 7.29873 34.0096 7.32666 34.0201C7.35424 34.0094 7.38427 34.0065 7.41339 34.0118C7.44251 34.0172 7.46956 34.0305 7.4915 34.0503L8.96365 35.386C8.9799 35.4013 8.99283 35.4197 9.00163 35.4402C9.01043 35.4606 9.01491 35.4826 9.0148 35.5049C9.01505 35.5441 9.00012 35.582 8.97312 35.6105C8.9591 35.6261 8.94213 35.6387 8.92319 35.6477C8.90424 35.6567 8.88371 35.6618 8.86275 35.6629C8.8418 35.664 8.82084 35.6609 8.80109 35.6538C8.78133 35.6468 8.76318 35.6359 8.74765 35.6219L7.58244 34.5653V35.4389L8.96365 36.6935C8.97994 36.7083 8.99292 36.7264 9.00173 36.7466C9.01054 36.7667 9.015 36.7885 9.0148 36.8105C9.01534 36.8503 9.00041 36.8888 8.97312 36.918C8.9591 36.9335 8.94213 36.9462 8.92319 36.9552C8.90424 36.9641 8.88371 36.9693 8.86275 36.9704C8.8418 36.9714 8.82084 36.9683 8.80109 36.9613C8.78133 36.9542 8.76318 36.9434 8.74765 36.9293L7.58244 35.8709V36.7256L8.96365 37.9783C8.9799 37.9936 8.99283 38.012 9.00163 38.0324C9.01043 38.0529 9.01491 38.0749 9.0148 38.0972C9.01491 38.128 9.00597 38.1582 8.98908 38.1841C8.97219 38.21 8.94808 38.2304 8.91971 38.2428C8.89135 38.2552 8.85995 38.2591 8.82939 38.254C8.79882 38.2489 8.77042 38.2351 8.74765 38.2141L7.58244 37.1576V38.9122C8.59471 39.8008 9.68612 40.5959 10.8431 41.2875L12.7264 39.5782V37.9311L10.6006 39.8612C10.5423 39.9137 10.4655 39.9411 10.387 39.9372C10.3084 39.9333 10.2347 39.8985 10.1819 39.8404C10.1291 39.7824 10.1017 39.7059 10.1056 39.6277C10.1095 39.5495 10.1445 39.476 10.2028 39.4235L12.7264 37.135V35.5577L10.5949 37.4802C10.5529 37.5194 10.5003 37.5455 10.4435 37.5552C10.3867 37.5648 10.3284 37.5576 10.2757 37.5345C10.223 37.5114 10.1783 37.4733 10.1471 37.4251C10.116 37.3769 10.0997 37.3206 10.1004 37.2633C10.1003 37.2221 10.1088 37.1813 10.1254 37.1436C10.1421 37.1059 10.1665 37.0721 10.1971 37.0444L12.7207 34.754V33.1409L10.5949 35.0691C10.5369 35.1216 10.4603 35.149 10.3819 35.1453C10.3036 35.1416 10.2299 35.1071 10.1772 35.0493C10.1244 34.9915 10.0969 34.9152 10.1006 34.8372C10.1043 34.7591 10.139 34.6858 10.1971 34.6333L12.9159 32.1655C13.1142 32.09 13.3334 32.09 13.5317 32.1655L16.2524 34.6333C16.2812 34.6593 16.3046 34.6908 16.3212 34.7259C16.3377 34.761 16.3472 34.7991 16.3489 34.8378C16.3507 34.8766 16.3447 34.9153 16.3314 34.9517C16.3181 34.9882 16.2977 35.0216 16.2713 35.0502C16.2451 35.0789 16.2135 35.1022 16.1783 35.1187C16.143 35.1352 16.1048 35.1446 16.0659 35.1463C16.027 35.1481 15.9881 35.1422 15.9515 35.1289C15.9149 35.1156 15.8813 35.0953 15.8526 35.0691L13.6984 33.1145V34.7314L16.2524 37.0501C16.2812 37.0761 16.3046 37.1076 16.3212 37.1427C16.3377 37.1779 16.3472 37.2159 16.3489 37.2546C16.3507 37.2934 16.3447 37.3321 16.3314 37.3685C16.3181 37.405 16.2977 37.4385 16.2713 37.467C16.2182 37.5246 16.1443 37.5588 16.0659 37.5624C15.9874 37.5659 15.9108 37.5384 15.8526 37.4859L13.6984 35.5313V37.1029L16.2524 39.4197C16.2825 39.4478 16.3066 39.4817 16.3232 39.5193C16.3398 39.5569 16.3486 39.5975 16.349 39.6386C16.3488 39.6957 16.3319 39.7515 16.3005 39.7994C16.2691 39.8472 16.2245 39.8849 16.172 39.9081C16.1195 39.9312 16.0614 39.9387 16.0048 39.9297C15.9481 39.9207 15.8953 39.8956 15.8526 39.8574L13.6984 37.901V39.5556L16.2524 41.8724C16.2825 41.9004 16.3066 41.9343 16.3232 41.9719C16.3398 42.0096 16.3486 42.0501 16.349 42.0912C16.3488 42.1484 16.3319 42.2042 16.3005 42.252C16.2691 42.2998 16.2245 42.3376 16.172 42.3607C16.1195 42.3838 16.0614 42.3914 16.0048 42.3824C15.9481 42.3734 15.8953 42.3483 15.8526 42.3101L13.6984 40.348V42.7308C14.3577 43.0063 15.0329 43.2503 15.7238 43.4628C15.9132 43.5232 16.116 43.5817 16.3149 43.6364L18.382 42.0875L20.1402 41.4101L21.6919 40.8102L21.3509 36.9331C21.2713 36.0162 21.1911 35.0986 21.1103 34.1805L21.0894 33.9484L21.0174 32.3089C21.0174 32.2825 21.0174 32.258 21.0174 32.2315C21.044 31.7184 21.0705 31.2033 21.0951 30.6901C21.0951 30.6562 21.0951 30.6203 21.0951 30.5618C21.1766 28.7959 21.9231 28.3658 21.9705 28.3412C22.3245 28.1551 22.7365 28.1105 23.1224 28.2167C23.1977 28.2363 23.2713 28.2622 23.3422 28.2941C23.6183 28.431 23.8871 28.5821 24.1474 28.7469C24.5667 29.0231 25.0193 29.2456 25.4945 29.4091C26.3251 29.6679 27.2198 29.6332 28.0277 29.311C28.1186 29.2751 28.2077 29.2355 28.3005 29.194L28.0201 27.1357C28.017 27.1125 28.0185 27.089 28.0245 27.0664C28.0306 27.0438 28.041 27.0226 28.0552 27.004C28.0695 26.9855 28.0873 26.9699 28.1076 26.9581C28.1279 26.9464 28.1503 26.9388 28.1736 26.9357C28.1968 26.9326 28.2205 26.9341 28.2432 26.9401C28.2658 26.9461 28.2871 26.9565 28.3058 26.9707C28.3244 26.9849 28.3401 27.0026 28.3519 27.0228C28.3636 27.043 28.3713 27.0653 28.3744 27.0885L28.7211 29.6412L28.8481 30.5845L29.8143 37.6689L31.3604 37.0708L33.1054 35.7502L33.6548 35.3313L34.9129 34.3729L35.7295 33.2164V19.6136L24.748 12.3669ZM20.6271 28.7337C20.4132 29.2234 20.2992 29.7505 20.2918 30.2845C20.2918 30.3411 20.2918 30.377 20.2918 30.4128C20.2653 30.926 20.2394 31.4398 20.2141 31.9542C20.2009 32.1919 20.1895 32.4296 20.1781 32.6655C20.0727 32.6822 19.9653 32.6822 19.8598 32.6655C19.4278 32.6259 18.9977 32.5711 18.5677 32.5108C18.31 32.4749 18.2058 32.3598 18.2342 32.0995C18.3327 31.2335 18.4237 30.3637 18.5696 29.5072C18.6965 28.7789 19.3956 28.1997 20.1345 28.1092C20.1724 28.1092 20.4509 28.1431 20.6613 28.1884C20.7295 28.2092 20.7977 28.2318 20.864 28.2563C20.8786 28.261 20.8912 28.2703 20.9 28.2828C20.7897 28.4206 20.698 28.5722 20.6271 28.7337ZM23.4691 27.6413C23.177 27.6826 22.8792 27.637 22.6131 27.5101C22.3471 27.3832 22.1246 27.1807 21.9739 26.9282C21.8231 26.6757 21.7508 26.3844 21.7659 26.091C21.7811 25.7976 21.8831 25.5153 22.0591 25.2795C22.2351 25.0437 22.4772 24.8651 22.755 24.7661C23.0327 24.667 23.3337 24.6521 23.62 24.723C23.9063 24.794 24.1651 24.9478 24.3638 25.1649C24.5625 25.382 24.6922 25.6529 24.7367 25.9433C24.7912 26.3344 24.6896 26.7313 24.4537 27.0487C24.2178 27.3662 23.8664 27.5789 23.4748 27.6413H23.4691Z" fill="#19A96C"/>
</svg>
